<?xml version="1.0" encoding="utf-8"?>
<!-- Generator: Adobe Illustrator 25.0.1, SVG Export Plug-In . SVG Version: 6.00 Build 0)  -->
<svg version="1.1" id="Layer_1" xmlns="http://www.w3.org/2000/svg" xmlns:xlink="http://www.w3.org/1999/xlink" x="0px" y="0px"
	 viewBox="0 0 322 76" style="enable-background:new 0 0 322 76;" xml:space="preserve">
<style type="text/css">
	.st0{fill:#FFFFFF;}
</style>
<path class="st0" d="M43.9,16.1c-2.1-2.3-4.2-3.8-6.2-4.6s-4-1.1-6-1.1c-3,0-5.7,0.5-8.1,1.6s-4.5,2.5-6.3,4.4
	c-1.7,1.9-3.1,4.1-4.1,6.6s-1.4,5.2-1.4,8.1c0,3.1,0.5,6,1.4,8.6c1,2.6,2.3,4.9,4.1,6.8c1.7,1.9,3.8,3.4,6.3,4.5
	c2.4,1.1,5.1,1.6,8.1,1.6c2.3,0,4.6-0.6,6.8-1.7c2.2-1.1,4.3-2.9,6.2-5.4l8.5,6.1c-2.6,3.6-5.8,6.2-9.6,7.9c-3.8,1.6-7.8,2.5-12,2.5
	c-4.5,0-8.6-0.7-12.3-2.2c-3.7-1.4-7-3.5-9.7-6.1s-4.8-5.8-6.3-9.5C1.8,40.4,1,36.3,1,31.8c0-4.6,0.8-8.9,2.3-12.7s3.6-7,6.3-9.7
	s5.9-4.7,9.7-6.2C23,1.8,27.1,1,31.6,1c3.9,0,7.6,0.7,10.9,2.1c3.4,1.4,6.5,3.8,9.4,7.1L43.9,16.1z"/>
<path class="st0" d="M67.3,31.1c0,3.1,0.5,6,1.4,8.6c1,2.6,2.3,4.9,4.1,6.8c1.7,1.9,3.8,3.4,6.3,4.5c2.4,1.1,5.1,1.6,8.1,1.6
	s5.7-0.5,8.2-1.6s4.6-2.6,6.3-4.5c1.7-1.9,3.1-4.2,4.1-6.8s1.4-5.5,1.4-8.6c0-2.9-0.5-5.6-1.4-8.1c-1-2.5-2.3-4.7-4.1-6.6
	c-1.7-1.9-3.8-3.4-6.3-4.4c-2.5-1.1-5.2-1.6-8.2-1.6s-5.7,0.5-8.1,1.6s-4.5,2.5-6.3,4.4c-1.7,1.9-3.1,4.1-4.1,6.6
	C67.8,25.5,67.3,28.2,67.3,31.1 M56.5,31.8c0-4.6,0.8-8.9,2.3-12.7s3.6-7,6.3-9.7c2.7-2.7,5.9-4.7,9.7-6.2C78.5,1.8,82.6,1,87.1,1
	c4.5-0.1,8.7,0.6,12.4,2c3.8,1.4,7,3.4,9.7,6.1s4.9,5.9,6.4,9.7s2.3,8,2.3,12.6c0,4.5-0.8,8.7-2.3,12.4s-3.7,6.9-6.4,9.6
	c-2.7,2.7-6,4.8-9.7,6.3c-3.8,1.5-7.9,2.3-12.4,2.3s-8.6-0.7-12.3-2.2c-3.7-1.4-7-3.5-9.7-6.1c-2.7-2.6-4.8-5.8-6.3-9.5
	C57.3,40.4,56.5,36.3,56.5,31.8"/>
<polygon class="st0" points="179,12.4 179,46.9 188.8,22.1 188.8,2.5 173.3,2.5 157.6,43.2 142.2,2.5 126.4,2.5 126.4,60.5 
	136.3,60.5 136.3,12.4 136.4,12.4 154,60.5 161.2,60.5 178.8,12.4 "/>
<g>
	<polygon class="st0" points="228.4,41.8 235.1,41.8 231.7,33.3 	"/>
	<path class="st0" d="M194.3,16.5l-17.4,44.3h22.5V76l14.5-15.2h89.7L321,16.5H194.3z M211.4,30.7v22.1h-6.1V30.7h-7.8v-5.4h21.7
		v5.4H211.4z M239.6,52.8l-2.4-5.8h-10.7l-2.3,5.8h-6.7l11.9-27.5h5l12,27.5H239.6z M268.1,52.8h-17.2V25.3h6v21.9h11.2V52.8z
		 M290.9,52.8l-11.2-13v13h-6V25.3h6v11.4l10.7-11.4h7.9l-12.2,12.8l13.3,14.7H290.9z"/>
</g>
</svg>
