<?xml version="1.0" encoding="utf-8"?>
<!-- Generator: Adobe Illustrator 23.0.2, SVG Export Plug-In . SVG Version: 6.00 Build 0)  -->
<svg version="1.1" id="Layer_1" xmlns="http://www.w3.org/2000/svg" xmlns:xlink="http://www.w3.org/1999/xlink" x="0px" y="0px"
	 viewBox="0 0 50 50" style="enable-background:new 0 0 50 50;" xml:space="preserve">
<style type="text/css">
	.st0{fill:#FFFFFF;}
</style>
<g>
	<path class="st0" d="M18.6,18.6c1.3,0.8,3,1.4,5,2.1l0.9,0.3l0.9-0.3c2-0.7,3.6-1.3,5-2.1c1.6-0.9,2.5-2,2.9-3.3
		c0.6-2.2-0.2-3.6-0.7-4.2c-0.8-0.9-2-1.4-3.1-1.2c-2,0.3-3.2,2.1-3.9,3.2c-0.1,0.1-0.1,0.2-0.2,0.3c-0.3,0.5-0.6,1.1-0.8,1.6
		c-0.2-0.6-0.4-1.1-0.8-1.6l-0.2-0.3c-0.7-1.1-1.9-2.8-3.9-3.2c-1.2-0.2-2.4,0.2-3.2,1.2c-0.5,0.6-1.3,2-0.8,4.2
		C16,16.7,17,17.7,18.6,18.6z M25.6,17.9c0.3-1.5,0.6-2.7,1-3.3c0.1-0.1,0.1-0.2,0.2-0.3c0.6-0.9,1.5-2.2,2.7-2.4c0.1,0,0.2,0,0.3,0
		c0.5,0,1,0.2,1.3,0.6c0.5,0.6,0.6,1.4,0.4,2.5c-0.4,1.7-2.9,2.7-6.1,3.8C25.5,18.5,25.5,18.2,25.6,17.9z M17.8,12.4
		c0.3-0.4,0.8-0.6,1.3-0.6c0.1,0,0.2,0,0.3,0c1.3,0.2,2.1,1.5,2.7,2.4l0.2,0.3c0.6,0.9,1,2.7,1.2,4.1c-3.2-1.2-5.6-2.2-6.1-3.8
		C17.1,13.9,17.3,13,17.8,12.4z"/>
	<path class="st0" d="M18.6,20.9c-0.3-0.2-0.7-0.4-1-0.7c-0.2-0.1-0.5-0.2-0.7-0.1L14.3,21c-0.2,0.1-0.4,0.3-0.4,0.6v11.6
		c0,0.3,0.1,0.5,0.4,0.6l3.5,2.1V23l3-1.1C20,21.6,19.3,21.3,18.6,20.9z"/>
	<path class="st0" d="M25.7,22.8L25,23.1l-0.1,0c-0.2,0.1-0.5,0.1-0.8,0l-0.1,0l-0.6-0.2l-3.4,1.2v13.1l4.7,2.8
		c0.2,0.1,0.5,0.1,0.7,0l4.7-2.8V24.1l-4-1.4L25.7,22.8z"/>
	<path class="st0" d="M35.7,21l-3.3-1.2c-0.1,0-0.3,0-0.4,0l-0.2,0.1c0,0-0.1,0-0.1,0.1c-0.4,0.3-0.8,0.6-1.3,0.9
		c-0.6,0.3-1.1,0.6-1.7,0.8l3.6,1.3v13l3.5-2.1c0.2-0.1,0.3-0.4,0.4-0.6V21.6C36,21.3,35.9,21.1,35.7,21z"/>
</g>
</svg>
