<?xml version="1.0" encoding="utf-8"?>
<!-- Generator: Adobe Illustrator 24.2.1, SVG Export Plug-In . SVG Version: 6.00 Build 0)  -->
<svg version="1.1" id="Layer_1" xmlns="http://www.w3.org/2000/svg" xmlns:xlink="http://www.w3.org/1999/xlink" x="0px" y="0px"
	 viewBox="0 0 542.1 86.5" style="enable-background:new 0 0 542.1 86.5;" xml:space="preserve">
<style type="text/css">
	.st0{fill:#FFFFFF;}
</style>
<g>
	<path class="st0" d="M192.7,59.4V7.7c0-1.5-0.5-2.4-1.8-2.4h-14.6v5.9h6.8v14.8c-3-3-7.4-5.5-14.3-5.5c-9.3,0-20.4,6.6-20.4,24.4
		c0,17.9,10,23.3,19.4,23.3c7.1,0,12.2-3.1,15.5-6.9c0.1,5.1,0.8,6.4,1.9,6.4h13.4v-5.7h-3.5C194,61.9,192.7,60.6,192.7,59.4z
		 M183.1,55.9c-3.1,3.4-6.9,6.2-12.5,6.2c-6,0-12.2-3.4-12.2-17.6c0-13.6,6.7-17.4,13.5-17.4c4.8,0,8.3,1.6,11.2,3.9V55.9z"/>
	<path class="st0" d="M107.6,39.7c-8.1-1.2-10.6-2.7-10.6-6.8c0-3.8,3.4-6.1,9.1-6.1c6.5,0,9.1,1.7,10.1,5.2h5.6v-9.3
		c-3.4-1.2-7.9-2.3-15.3-2.3c-11.1,0-17.8,5.1-17.8,13.8c0,9.3,5,12.3,14.6,13.7c7.9,1.2,11.1,2.5,11.1,6.9c0,4.8-3.9,7.1-10.3,7.1
		c-6.2,0-9.3-1.8-10.3-6.1H88v9.7c3.4,1.3,7.8,2.7,16.2,2.7c12.9,0,19.1-5.8,19.1-14.7C123.3,44.2,118.3,41.3,107.6,39.7z"/>
	<path class="st0" d="M136.8,16.1c3,0,5.5-2.4,5.5-5.4s-2.5-5.4-5.5-5.4c-3.1,0-5.5,2.4-5.5,5.4S133.7,16.1,136.8,16.1z"/>
	<path class="st0" d="M141.9,59.5V25.1c0-3-0.5-4.1-1.8-4.1h-14.1V27h3.9c1.2,0,2.3,1.4,2.3,2.5v30c0,1.2-1.2,2.4-2.4,2.4h-3.5v5.7
		h21.4v-5.7h-3.5C143.2,61.9,141.9,60.7,141.9,59.5z"/>
	<path class="st0" d="M6.2,11.2h4.5c1.4,0,2.8,1.6,2.8,2.9v44.9c0,1.2-1.3,2.8-2.8,2.8H6.2v5.7h24.7v-5.7h-4.5
		c-1.4,0-2.8-1.6-2.8-2.8V14.1c0-1.3,1.3-2.9,2.8-2.9h4.5V5.3H6.2V11.2z"/>
	<path class="st0" d="M79.6,59.5V32c0-9.2-5.5-11.6-12.2-11.6c-7.2,0-13.7,3.2-18.3,7.5v-1.2c0.1-4.5-0.9-5.7-2.2-5.7H33.2V27h3.8
		c1.2,0,2.4,1.4,2.4,2.5v30c0,1.2-1.2,2.4-2.4,2.4h-3.5v5.7h22v-5.7h-6.5V32.4c4-2.4,8.6-4.5,13.6-4.5c4.7,0,7.3,1.4,7.3,7.2v26.7
		h-6.4v5.7h21.3v-5.7h-2.9C80.9,61.9,79.6,60.7,79.6,59.5z"/>
	<path class="st0" d="M436.8,20.4c-13.5,0-22.7,9.3-22.7,24c0,14.6,8,23.7,23.7,23.7c9.3,0,14.6-2.4,18.2-4.8v-6.6h-5.5
		c-2.4,2.9-5.4,5.3-12,5.3c-9.3,0-14-5.3-14.3-16.2h33.2c0-0.4,0.1-1.6,0.1-2.9C457.5,27.3,449.9,20.4,436.8,20.4z M424.4,40
		c0.9-9.2,5.4-13.6,12.5-13.6c6.8,0,10.6,3.7,10.9,13.6H424.4z"/>
	<path class="st0" d="M505.6,59.5V32c0-9.2-5.5-11.6-12.2-11.6c-7.2,0-13.7,3.2-18.3,7.5v-1.2c0.1-4.5-0.9-5.7-2.2-5.7h-13.6V27h3.8
		c1.2,0,2.4,1.4,2.4,2.5v30c0,1.2-1.2,2.4-2.4,2.4h-3.5v5.7h22v-5.7h-6.5V32.4c4-2.4,8.6-4.5,13.6-4.5c4.7,0,7.3,1.4,7.3,7.2v26.7
		h-6.4v5.7h21.3v-5.7H508C506.9,61.9,505.6,60.7,505.6,59.5z"/>
	<path class="st0" d="M391.3,20.4c-11,0-17.8,6.1-17.8,15c0,4.7,2,8.5,5.4,11c-2.8,2.2-4.7,4.9-4.7,8.6c0,3.1,1.6,5.3,3.6,6.3
		c-4.3,2.1-8.1,5.1-8.1,10.5c0,6.4,5.4,11,19.7,11c17.2,0,23.6-6.7,23.6-15.8c0-7.9-4.9-11.6-14.2-11.6h-13.1c-2.8,0-4.4-1-4.4-3.3
		c0-1.4,0.4-2.8,1.2-3.9c2.4,1,5.2,1.5,8.6,1.5c11,0,17.9-5.8,17.9-14.4c0-2.6-0.7-4.9-2-6.8c0-0.9,1.1-1.6,2-1.6h4V21h-16
		C395.3,20.6,393.3,20.4,391.3,20.4z M381.6,63.9h15.1c5.2,0,7.2,1.6,7.2,5.3c0,4.4-4.3,7.7-14.1,7.7c-8.9,0-11.4-2.7-11.4-6.9
		C378.5,67.2,379.6,65.5,381.6,63.9z M400.3,35.4c0,5.4-3.2,8.8-9,8.8c-5.7,0-8.9-3.4-8.9-8.8c0-5.5,3.2-9,8.9-9
		C397.1,26.4,400.3,29.9,400.3,35.4z"/>
	<path class="st0" d="M533.8,61.9c-4.7,0-6.5-1.2-6.5-6.4V27h10.6V21h-10.6V8.4h-9.6V21h-6V27h6v29.5c0,8.7,4.8,11.7,13.1,11.7
		c3.3,0,6.1-0.5,7.7-1.2v-5.2H533.8z"/>
	<path class="st0" d="M369.7,28.9h1.9V21c-0.7-0.2-1.6-0.4-2.7-0.4c-6.5,0-10.6,3.9-13.9,8.1v-1.5c0-5.1-0.9-6.2-2.2-6.2h-13.6V27
		h3.8c1.2,0,2.4,1.4,2.4,2.5v30c0,1.2-1.2,2.4-2.4,2.4h-3.5v5.7h22.9v-5.7H355V33.6C358.4,30.6,362.5,28.9,369.7,28.9z"/>
	<path class="st0" d="M271.1,31.4c-8.5-2.3-14.2-3.6-14.2-10.9c0-6.8,4.5-9.3,10.9-9.3c6.1,0,9.1,2.1,11.3,4.3l0.9,6.2h6.9V5.3h-6.5
		c-0.1,0.9-0.7,2-1.3,2c-1.8-0.9-4.9-2.6-11.2-2.6c-11.5,0-19.8,5.6-19.8,16.8c0,10.6,5.4,15.1,16.4,18.2
		c9.1,2.5,15.3,3.5,15.3,11.9c0,6.9-4.7,10.1-11.8,10.1c-6.7,0-9.9-1.7-13-4.7l-0.9-7.6h-7v18.2h6.8c0.2-1.3,0.7-2.3,1.3-2.3
		c2.4,1.3,6,2.9,13,2.9c13.7,0,21-6.4,21-18.3C289.1,38.4,283.1,34.6,271.1,31.4z"/>
	<path class="st0" d="M220.9,20.4c-13.5,0-22.7,9.3-22.7,24c0,14.6,8,23.7,23.7,23.7c9.3,0,14.6-2.4,18.2-4.8v-6.6h-5.5
		c-2.4,2.9-5.4,5.3-12,5.3c-9.3,0-14-5.3-14.3-16.2h33.2c0-0.4,0.1-1.6,0.1-2.9C241.5,27.3,233.9,20.4,220.9,20.4z M208.4,40
		c0.9-9.2,5.4-13.6,12.5-13.6c6.8,0,10.6,3.7,10.9,13.6H208.4z"/>
	<path class="st0" d="M331.7,59.1V34.2c0-10.3-6.4-13.8-17.4-13.8c-8.5,0-14.2,1.7-18.2,3.6v7.4h4.5c2.5-2.2,6-4.4,12.1-4.4
		c6,0,9.4,2.1,9.4,8.1v6.1c-3.3-0.8-6.5-1.2-10.7-1.2c-10.8,0-18.4,4.5-18.4,14.2c0,9.3,6.2,13.9,15.1,13.9c6.2,0,10.8-2,14.2-6.3
		c0.7,4.3,3.4,6.3,8.5,6.3c2.7,0,4.9-0.6,6.1-1.4v-4.8h-2.4C332.9,61.9,331.7,60.8,331.7,59.1z M322.1,56.8c-2.8,3-6.1,5.2-10.9,5.2
		c-5.4,0-8.6-2.3-8.6-8c0-5.8,4.1-8.2,10.9-8.2c3.1,0,6.1,0.4,8.7,0.9V56.8z"/>
</g>
</svg>
