<?xml version="1.0" encoding="utf-8"?>
<!-- Generator: Adobe Illustrator 23.0.2, SVG Export Plug-In . SVG Version: 6.00 Build 0)  -->
<svg version="1.1" id="Layer_1" xmlns="http://www.w3.org/2000/svg" xmlns:xlink="http://www.w3.org/1999/xlink" x="0px" y="0px"
	 viewBox="0 0 301 85.6" style="enable-background:new 0 0 301 85.6;" xml:space="preserve">
<style type="text/css">
	.st0{fill:#FFFFFF;}
</style>
<title>CFA Magazine</title>
<g>
	<path class="st0" d="M63.6,22.2l1.7-1.8l-0.5-0.5c-2.1-2.1-4.6-4-7.3-5.4c-5.3-2.8-10.8-4.3-16.4-4.3s-11.2,1.5-16.5,4.3
		c-5.3,2.9-9.5,7-12.5,12.4c-3,5.3-4.5,11-4.5,16.8S9.1,55,12,60.3s7.1,9.4,12.4,12.4c5.3,2.9,10.9,4.4,16.7,4.4s11.4-1.5,16.7-4.4
		c2.6-1.5,5-3.3,7.1-5.3l0.5-0.5l-1.8-1.7l-0.5,0.5c-1.9,1.9-4.1,3.5-6.5,4.9l0,0c-4.9,2.7-10.1,4.1-15.4,4.1s-10.5-1.4-15.4-4.1
		s-8.7-6.5-11.4-11.4s-4.1-10.1-4.1-15.4c0-5.4,1.4-10.6,4.2-15.5s6.6-8.8,11.5-11.4s10-4,15.3-4c5.2,0,10.3,1.3,15.2,4
		c2.5,1.3,4.8,3,6.8,5L63.6,22.2z"/>
	<path class="st0" d="M68.4,70.7c-2.4,2.4-5.1,4.4-8.1,6.1c-6.1,3.4-12.5,5.1-19.2,5.1c-6.6,0-13-1.7-19.1-5.1S11.1,68.7,7.8,62.6
		c-3.4-6.1-5.1-12.5-5.1-19.1c0-6.7,1.7-13.2,5.2-19.3C11.2,18.1,16,13.3,22.1,10S34.6,5,41,5s12.8,1.7,18.9,4.9
		c3.1,1.7,6,3.8,8.4,6.3l0.2,0.2l1.8-1.8l-0.2-0.2c-2.6-2.6-5.6-4.9-9-6.7C54.7,4.3,47.9,2.5,41,2.5S27.3,4.3,20.8,7.8
		C14.4,11.3,9.2,16.4,5.6,23C2,29.5,0.1,36.5,0.1,43.6S1.9,57.5,5.5,64s8.7,11.6,15.2,15.1c6.5,3.6,13.3,5.4,20.4,5.4
		s14-1.8,20.5-5.4c3.2-1.8,6.2-4,8.7-6.5l0.2-0.2l-1.8-1.8L68.4,70.7z"/>
	<path class="st0" d="M29.4,22.8c3.8-2,7.7-3.1,11.7-3.1s7.9,1,11.7,3.1c1.9,1.1,3.7,2.4,5.2,3.9l0.5,0.5l1.8-1.8l-0.5-0.5
		c-1.7-1.7-3.6-3.1-5.8-4.3l0,0c-4.2-2.2-8.5-3.4-12.9-3.4s-8.8,1.1-13,3.4s-7.5,5.5-9.8,9.7s-3.5,8.6-3.5,13.2
		c0,4.5,1.2,9,3.5,13.1c2.3,4.2,5.6,7.4,9.8,9.7c4.2,2.3,8.6,3.5,13.1,3.5s8.9-1.2,13.1-3.5c2.1-1.1,4-2.6,5.6-4.2l0.5-0.5l-1.8-1.7
		L58,60.4c-1.4,1.4-3.1,2.7-5,3.8c-3.8,2.1-7.8,3.1-11.9,3.1s-8.1-1.1-11.9-3.1c-3.8-2.1-6.7-5-8.8-8.8s-3.1-7.7-3.1-11.9
		c0-4.1,1.1-8.1,3.2-11.9C22.6,27.8,25.6,24.9,29.4,22.8z"/>
	<polygon class="st0" points="126.3,85 128.9,85 128.9,5.1 183.9,5.1 183.9,2.5 126.3,2.5 	"/>
	<polygon class="st0" points="176.2,42.8 136.4,42.8 136.4,12.7 183.8,12.6 183.8,10.1 133.9,10.2 133.9,85 136.4,85 136.4,45.3 
		176.2,45.3 	"/>
	<polygon class="st0" points="141,85 143.5,85 143.5,52.3 176.3,52.3 176.3,49.8 141,49.8 	"/>
	<polygon class="st0" points="141,38.3 176.2,38.3 176.2,35.8 143.5,35.8 143.5,19.8 183.8,19.8 183.8,17.2 141,17.3 	"/>
	<polygon class="st0" points="258.1,0.1 216.1,84.7 215.9,85 218.7,85 258.1,5.8 297.3,84.9 297.4,85 300.3,85 	"/>
	<polygon class="st0" points="232,85 234.9,85 258.1,38.6 281.3,85 284.1,85 258.1,32.9 	"/>
	<polygon class="st0" points="224.1,85 226.9,85 258.1,22.7 289.3,85 292.1,85 258.1,17.1 	"/>
</g>
</svg>
