<?xml version="1.0" encoding="utf-8"?>
<!-- Generator: Adobe Illustrator 23.0.2, SVG Export Plug-In . SVG Version: 6.00 Build 0)  -->
<svg version="1.1" id="Layer_1" xmlns="http://www.w3.org/2000/svg" xmlns:xlink="http://www.w3.org/1999/xlink" x="0px" y="0px"
	 viewBox="0 0 50 50" style="enable-background:new 0 0 50 50;" xml:space="preserve">
<style type="text/css">
	.st0{fill:#FFFFFF;}
	.st1{fill:#FFFFFF;}
	.st2{fill:#FFFFFF;}
	.st3{fill:#FFFFFF;}
</style>
<g>
	<polygon class="st0" points="27.7,26.7 27.7,23.5 25,22 22.3,23.5 22.3,26.7 25,28.2 	"/>
	<g>
		<polygon class="st1" points="20.1,23.5 20.1,22.3 21.2,21.7 23.3,20.6 13.3,13.6 10.2,18 20.1,25 		"/>
		<polygon class="st1" points="29.9,25.2 29.9,26.7 29.9,27.9 28.8,28.5 26.7,29.7 36.7,36.6 39.8,32.2 		"/>
	</g>
	<g>
		<polygon class="st2" points="25,31 22.3,32.9 22.3,41.3 27.7,41.3 27.7,32.9 		"/>
		<polygon class="st2" points="25,19.2 27.7,17.3 27.7,8.9 22.3,8.9 22.3,17.3 		"/>
	</g>
	<g>
		<polygon class="st3" points="28.8,21.7 29.9,22.3 29.9,23.5 29.9,25 39.8,18 36.7,13.6 26.7,20.6 		"/>
		<polygon class="st3" points="21.2,28.5 20.1,27.9 20.1,26.7 20.1,25.2 10.2,32.2 13.3,36.6 23.3,29.7 		"/>
	</g>
</g>
</svg>
