<svg xmlns="http://www.w3.org/2000/svg" xmlns:xlink="http://www.w3.org/1999/xlink" width="100" height="100" viewBox="0 0 100 100"><g transform="translate(50 50) scale(0.69 -0.69) rotate(0) translate(-50 -50)" style="fill:#000000"><svg fill="#000000" xmlns="http://www.w3.org/2000/svg" xmlns:xlink="http://www.w3.org/1999/xlink" version="1.1" x="0px" y="0px" viewBox="0 0 100 100" style="enable-background:new 0 0 100 100;" xml:space="preserve"><style type="text/css">
	.st0{fill:#000000;}
</style><path class="st0" d="M24.1,84.4C25.9,73.5,30,63,35.8,53.7c5.9-9.3,13.5-17.6,22.4-24.1c4.4-3.2,9.1-6,14-8.3c-0.6,1-1.1,2-1.7,3  c-1.8,3.3-3.7,6.7-5.5,10c-0.5,1,0.9,4,1.7,2.6c1.8-3.2,3.6-6.5,5.4-9.7c0.9-1.6,1.8-3.2,2.6-4.8c0.8-1.5,1.5-3.2,2.8-4.3  c0.8-0.7-0.1-3.4-1.2-3.2c-7.9,1.5-15.8,2.6-23.8,3.4c-1.1,0.1-0.3,3.5,1,3.3c4.5-0.5,9-1,13.5-1.7c-7.9,4.2-15.1,9.7-21.3,16.1  c-7.8,8-14.1,17.6-18.4,27.9c-2.4,5.9-4.2,12-5.3,18.3c-0.1,0.8,0.1,1.8,0.7,2.3C23.4,85.2,23.9,85.1,24.1,84.4z"></path></svg></g></svg>